<?xml version="1.0" standalone="no"?>
<!DOCTYPE svg PUBLIC "-//W3C//DTD SVG 1.0//EN" "http://www.w3.org/TR/2001/REC-SVG-20010904/DTD/svg10.dtd">
<svg xmlns="http://www.w3.org/2000/svg" xmlns:xlink="http://www.w3.org/1999/xlink" id="body_1" width="24" height="24">

<g transform="matrix(0.012 0 0 0.012 0 0)">
	<g>
        <path d="M611.59 840.42L999.99 452.02997L1388.59 840.62L1614.59 614.62L999.99 0L385.6 614.42L611.59 840.42zM0.006 999.969L226.013 773.962L452.005 999.95496L226 1225.96zM611.59 1159.58L999.99 1547.97L1388.58 1159.39L1614.7 1385.27L1614.59 1385.39L999.99 2000L385.58002 1385.6L385.26 1385.28L611.59 1159.5801zM1548.013 1000.093L1774.0199 774.08704L2000.012 1000.07904L1774.006 1226.086z" stroke="none" fill="#F3BA2F" fill-rule="nonzero" />
        <path d="M1229.22 999.88L1229.32 999.88L999.99 770.55L830.51 940.03L830.5 940.03L811.03 959.51L770.87006 999.68L770.55005 999.99L770.87006 1000.32L999.99005 1229.45L1229.3201 1000.11993L1229.43 999.9899L1229.2201 999.87994" stroke="none" fill="#F3BA2F" fill-rule="nonzero" />
	</g>
</g>
</svg>